<?xml version="1.0" encoding="UTF-8"?>
<svg id="Layer_2" xmlns="http://www.w3.org/2000/svg" version="1.1" viewBox="0 0 841.89 841.89">
  <!-- Generator: Adobe Illustrator 30.3.0, SVG Export Plug-In . SVG Version: 2.1.3 Build 182)  -->
  <defs>
    <style>
      .st0 {
        fill: #fff;
        stroke: #000;
        stroke-linecap: square;
        stroke-miterlimit: 10;
        stroke-width: .06px;
      }
    </style>
  </defs>
  <polyline class="st0" points="98.6 413.06 98.96 426.8 98.96 413.24"/>
  <polyline class="st0" points="98.6 413 98.6 426.5 98.96 426.8"/>
  <line class="st0" x1="98.48" y1="412.94" x2="98.6" y2="426.5"/>
  <polyline class="st0" points="98.42 412.94 98.42 426.14 98.6 426.5"/>
  <polyline class="st0" points="107.3 431.66 107.84 431.84 107.3 418.04"/>
  <line class="st0" x1="107.3" y1="418.04" x2="107.3" y2="431.66"/>
  <line class="st0" x1="107.84" y1="431.84" x2="107.84" y2="418.34"/>
  <polyline class="st0" points="107.84 431.84 108.44 431.9 107.84 418.4"/>
  <line class="st0" x1="108.44" y1="431.9" x2="108.44" y2="418.7"/>
  <polyline class="st0" points="108.44 431.9 109.1 431.84 108.5 418.76"/>
  <line class="st0" x1="109.1" y1="431.84" x2="109.1" y2="419.12"/>
  <polyline class="st0" points="109.1 431.84 109.64 431.66 109.16 419.12"/>
  <line class="st0" x1="109.64" y1="431.66" x2="109.64" y2="419.42"/>
  <line class="st0" x1="98.96" y1="413.24" x2="98.96" y2="426.8"/>
  <line class="st0" x1="98.96" y1="426.8" x2="107.3" y2="431.66"/>
  <line class="st0" x1="107.3" y1="431.66" x2="107.3" y2="418.04"/>
  <line class="st0" x1="109.64" y1="419.42" x2="109.64" y2="431.66"/>
  <line class="st0" x1="109.64" y1="431.66" x2="116.66" y2="427.58"/>
  <line class="st0" x1="116.66" y1="427.58" x2="116.66" y2="423.44"/>
  <line class="st0" x1="118.76" y1="424.7" x2="118.76" y2="428.84"/>
  <line class="st0" x1="116.66" y1="427.58" x2="116.66" y2="423.44"/>
  <polyline class="st0" points="283.94 520.04 284.24 533.84 284.24 520.22"/>
  <polyline class="st0" points="283.88 520.04 283.88 533.48 284.24 533.84"/>
  <line class="st0" x1="283.82" y1="519.98" x2="283.88" y2="533.48"/>
  <polyline class="st0" points="283.76 519.98 283.76 533.12 283.88 533.48"/>
  <polyline class="st0" points="292.58 538.64 293.12 538.82 292.64 525.08"/>
  <line class="st0" x1="292.58" y1="525.08" x2="292.58" y2="538.64"/>
  <line class="st0" x1="293.12" y1="538.82" x2="293.12" y2="525.38"/>
  <polyline class="st0" points="293.12 538.82 293.78 538.94 293.18 525.38"/>
  <line class="st0" x1="293.78" y1="538.94" x2="293.78" y2="525.74"/>
  <polyline class="st0" points="293.78 538.94 294.44 538.82 293.84 525.74"/>
  <line class="st0" x1="294.44" y1="538.82" x2="294.44" y2="526.1"/>
  <polyline class="st0" points="294.44 538.82 294.98 538.64 294.5 526.16"/>
  <line class="st0" x1="294.98" y1="538.64" x2="294.98" y2="526.4"/>
  <line class="st0" x1="284.24" y1="520.22" x2="284.24" y2="533.84"/>
  <line class="st0" x1="284.24" y1="533.84" x2="292.58" y2="538.64"/>
  <line class="st0" x1="292.58" y1="538.64" x2="292.58" y2="525.08"/>
  <line class="st0" x1="294.98" y1="526.4" x2="294.98" y2="538.64"/>
  <line class="st0" x1="294.98" y1="538.64" x2="302" y2="534.56"/>
  <line class="st0" x1="302" y1="534.56" x2="302" y2="530.48"/>
  <line class="st0" x1="304.1" y1="531.68" x2="304.1" y2="535.82"/>
  <line class="st0" x1="302" y1="534.56" x2="302" y2="530.48"/>
  <line class="st0" x1="756.38" y1="313.4" x2="743.9" y2="306.2"/>
  <line class="st0" x1="735.02" y1="311.3" x2="747.5" y2="318.5"/>
  <line class="st0" x1="747.5" y1="318.5" x2="747.5" y2="595.46"/>
  <line class="st0" x1="747.5" y1="595.46" x2="756.38" y2="590.36"/>
  <line class="st0" x1="756.38" y1="590.36" x2="756.38" y2="313.4"/>
  <line class="st0" x1="756.38" y1="313.4" x2="747.5" y2="318.5"/>
  <line class="st0" x1="747.5" y1="595.46" x2="603.86" y2="512.54"/>
  <line class="st0" x1="756.38" y1="590.36" x2="756.38" y2="313.4"/>
  <line class="st0" x1="756.38" y1="313.4" x2="747.5" y2="318.5"/>
  <line class="st0" x1="747.5" y1="595.46" x2="756.38" y2="590.36"/>
  <line class="st0" x1="755.72" y1="312.98" x2="756.38" y2="313.4"/>
  <line class="st0" x1="747.5" y1="595.46" x2="747.5" y2="318.5"/>
  <line class="st0" x1="747.5" y1="318.5" x2="746.78" y2="318.08"/>
  <line class="st0" x1="746.78" y1="595.1" x2="747.5" y2="595.46"/>
  <line class="st0" x1="746.78" y1="595.1" x2="746.78" y2="318.08"/>
  <line class="st0" x1="746.78" y1="318.08" x2="755.72" y2="312.98"/>
  <line class="st0" x1="755.72" y1="312.98" x2="743.9" y2="306.2"/>
  <line class="st0" x1="746.78" y1="318.08" x2="755.72" y2="312.98"/>
  <line class="st0" x1="746.78" y1="318.08" x2="735.02" y2="311.3"/>
  <line class="st0" x1="746.78" y1="318.92" x2="746.78" y2="318.08"/>
  <line class="st0" x1="746.78" y1="318.92" x2="734.3" y2="311.72"/>
  <line class="st0" x1="604.58" y1="512.12" x2="746.78" y2="594.26"/>
  <line class="st0" x1="603.86" y1="512.54" x2="746.78" y2="595.1"/>
  <line class="st0" x1="746.78" y1="595.1" x2="746.78" y2="594.26"/>
  <line class="st0" x1="328.7" y1="535.58" x2="79.22" y2="391.58"/>
  <line class="st0" x1="79.22" y1="401.84" x2="328.7" y2="545.9"/>
  <line class="st0" x1="328.7" y1="545.9" x2="756.38" y2="298.94"/>
  <line class="st0" x1="756.38" y1="298.94" x2="756.38" y2="288.68"/>
  <line class="st0" x1="756.38" y1="288.68" x2="328.7" y2="535.58"/>
  <line class="st0" x1="328.7" y1="535.58" x2="328.7" y2="545.9"/>
  <line class="st0" x1="79.22" y1="391.58" x2="506.9" y2="144.62"/>
  <line class="st0" x1="79.22" y1="401.84" x2="79.22" y2="391.58"/>
  <line class="st0" x1="506.9" y1="144.62" x2="756.38" y2="288.68"/>
  <line class="st0" x1="79.22" y1="391.58" x2="506.9" y2="144.62"/>
  <line class="st0" x1="79.22" y1="401.84" x2="79.22" y2="391.58"/>
  <line class="st0" x1="79.94" y1="392" x2="507.62" y2="145.04"/>
  <line class="st0" x1="507.62" y1="145.04" x2="506.9" y2="144.62"/>
  <line class="st0" x1="79.22" y1="391.58" x2="79.94" y2="392"/>
  <line class="st0" x1="79.94" y1="402.26" x2="79.22" y2="401.84"/>
  <line class="st0" x1="79.94" y1="392" x2="79.94" y2="402.26"/>
  <line class="st0" x1="327.98" y1="535.22" x2="79.94" y2="392"/>
  <line class="st0" x1="79.94" y1="392" x2="79.94" y2="402.26"/>
  <line class="st0" x1="327.98" y1="545.48" x2="327.98" y2="535.22"/>
  <line class="st0" x1="328.7" y1="534.8" x2="80.66" y2="391.58"/>
  <line class="st0" x1="80.66" y1="391.58" x2="79.94" y2="392"/>
  <line class="st0" x1="327.98" y1="535.22" x2="328.7" y2="534.8"/>
  <line class="st0" x1="327.98" y1="545.48" x2="79.94" y2="402.26"/>
  <line class="st0" x1="756.38" y1="288.68" x2="328.7" y2="535.58"/>
  <line class="st0" x1="328.7" y1="535.58" x2="328.7" y2="545.9"/>
  <line class="st0" x1="756.38" y1="298.94" x2="756.38" y2="288.68"/>
  <line class="st0" x1="755.72" y1="288.26" x2="327.98" y2="535.22"/>
  <line class="st0" x1="327.98" y1="535.22" x2="328.7" y2="535.58"/>
  <line class="st0" x1="756.38" y1="288.68" x2="755.72" y2="288.26"/>
  <line class="st0" x1="756.38" y1="298.94" x2="328.7" y2="545.9"/>
  <line class="st0" x1="328.7" y1="545.9" x2="327.98" y2="545.48"/>
  <line class="st0" x1="327.98" y1="545.48" x2="327.98" y2="535.22"/>
  <line class="st0" x1="507.62" y1="145.04" x2="755.72" y2="288.26"/>
  <line class="st0" x1="506.9" y1="145.46" x2="755" y2="288.68"/>
  <line class="st0" x1="755" y1="288.68" x2="755.72" y2="288.26"/>
  <line class="st0" x1="507.62" y1="145.04" x2="506.9" y2="145.46"/>
  <line class="st0" x1="337.64" y1="555.14" x2="302" y2="534.56"/>
  <line class="st0" x1="283.76" y1="524.06" x2="116.66" y2="427.58"/>
  <line class="st0" x1="98.42" y1="417.08" x2="88.16" y2="411.14"/>
  <line class="st0" x1="79.22" y1="416.24" x2="328.7" y2="560.3"/>
  <line class="st0" x1="79.22" y1="693.2" x2="79.22" y2="416.24"/>
  <line class="st0" x1="79.22" y1="416.24" x2="88.16" y2="411.14"/>
  <line class="st0" x1="328.7" y1="560.3" x2="328.7" y2="837.26"/>
  <line class="st0" x1="328.7" y1="837.26" x2="337.64" y2="832.1"/>
  <line class="st0" x1="337.64" y1="832.1" x2="337.64" y2="555.14"/>
  <line class="st0" x1="337.64" y1="555.14" x2="328.7" y2="560.3"/>
  <line class="st0" x1="328.7" y1="837.26" x2="79.22" y2="693.2"/>
  <line class="st0" x1="328.7" y1="560.3" x2="328.7" y2="837.26"/>
  <line class="st0" x1="328.7" y1="837.26" x2="337.64" y2="832.1"/>
  <line class="st0" x1="337.64" y1="555.14" x2="328.7" y2="560.3"/>
  <line class="st0" x1="327.98" y1="559.88" x2="327.98" y2="836.84"/>
  <line class="st0" x1="327.98" y1="836.84" x2="328.7" y2="837.26"/>
  <line class="st0" x1="328.7" y1="560.3" x2="327.98" y2="559.88"/>
  <line class="st0" x1="337.64" y1="555.14" x2="337.64" y2="832.1"/>
  <line class="st0" x1="336.92" y1="554.72" x2="337.64" y2="555.14"/>
  <line class="st0" x1="327.98" y1="559.88" x2="336.92" y2="554.72"/>
  <line class="st0" x1="79.94" y1="416.66" x2="327.98" y2="559.88"/>
  <line class="st0" x1="327.98" y1="559.88" x2="336.92" y2="554.72"/>
  <line class="st0" x1="88.82" y1="411.5" x2="79.94" y2="416.66"/>
  <line class="st0" x1="79.94" y1="417.5" x2="327.98" y2="560.72"/>
  <line class="st0" x1="327.98" y1="560.72" x2="327.98" y2="559.88"/>
  <line class="st0" x1="79.94" y1="416.66" x2="79.94" y2="417.5"/>
  <line class="st0" x1="88.82" y1="411.5" x2="98.42" y2="417.08"/>
  <line class="st0" x1="116.66" y1="427.58" x2="283.76" y2="524.06"/>
  <line class="st0" x1="302" y1="534.56" x2="336.92" y2="554.72"/>
  <line class="st0" x1="79.22" y1="693.2" x2="79.22" y2="416.24"/>
  <line class="st0" x1="79.22" y1="416.24" x2="88.16" y2="411.14"/>
  <line class="st0" x1="79.94" y1="693.62" x2="79.94" y2="416.66"/>
  <line class="st0" x1="79.94" y1="416.66" x2="79.22" y2="416.24"/>
  <line class="st0" x1="79.22" y1="693.2" x2="79.94" y2="693.62"/>
  <line class="st0" x1="88.16" y1="411.14" x2="88.82" y2="411.5"/>
  <line class="st0" x1="88.82" y1="411.5" x2="79.94" y2="416.66"/>
  <line class="st0" x1="327.98" y1="836.06" x2="79.94" y2="692.84"/>
  <line class="st0" x1="79.94" y1="692.84" x2="79.94" y2="693.62"/>
  <line class="st0" x1="327.98" y1="836.84" x2="327.98" y2="836.06"/>
  <line class="st0" x1="327.98" y1="836.84" x2="79.94" y2="693.62"/>
  <line class="st0" x1="729.68" y1="314.42" x2="729.68" y2="439.94"/>
  <line class="st0" x1="729.68" y1="439.94" x2="337.64" y2="666.26"/>
  <line class="st0" x1="319.82" y1="544.88" x2="323.36" y2="542.84"/>
  <line class="st0" x1="316.94" y1="539.12" x2="313.4" y2="541.16"/>
  <line class="st0" x1="313.4" y1="541.16" x2="319.82" y2="544.88"/>
  <line class="st0" x1="319.82" y1="544.88" x2="323.36" y2="542.78"/>
  <line class="st0" x1="313.4" y1="541.16" x2="319.82" y2="544.88"/>
  <line class="st0" x1="320.54" y1="545.3" x2="324.08" y2="543.2"/>
  <line class="st0" x1="313.4" y1="541.16" x2="316.94" y2="539.12"/>
  <line class="st0" x1="729.68" y1="314.42" x2="729.68" y2="439.1"/>
  <line class="st0" x1="728.96" y1="314.84" x2="728.96" y2="439.52"/>
  <line class="st0" x1="728.96" y1="439.52" x2="729.68" y2="439.1"/>
  <line class="st0" x1="729.68" y1="439.94" x2="337.64" y2="666.26"/>
  <line class="st0" x1="729.68" y1="439.1" x2="337.64" y2="665.48"/>
  <line class="st0" x1="729.68" y1="439.94" x2="729.68" y2="439.1"/>
</svg>