<?xml version="1.0" encoding="UTF-8"?>
<svg xmlns="http://www.w3.org/2000/svg" version="1.1" viewBox="0 0 841.89 841.89">
  <!-- Generator: Adobe Illustrator 30.3.0, SVG Export Plug-In . SVG Version: 2.1.3 Build 182)  -->
  <defs>
    <style>
      .st0 {
        fill: none;
        stroke-linecap: round;
        stroke-linejoin: round;
      }

      .st0, .st1 {
        stroke: #000;
      }

      .st2 {
        fill: #1d1d1b;
      }

      .st1 {
        fill: #fff;
        stroke-linecap: square;
        stroke-miterlimit: 10;
        stroke-width: .06px;
      }
    </style>
  </defs>
  <g id="Layer_1">
    <line class="st0" x1="830.71" y1="486.41" x2="406.73" y2="731.26"/>
    <line class="st0" x1="406.73" y1="731.26" x2="126.42" y2="569.41"/>
    <line class="st0" x1="126.42" y1="533.51" x2="126.42" y2="233.15"/>
    <circle class="st2" cx="126.42" cy="533.51" r="3.98" transform="translate(-29.31 7.81) rotate(-3.17)"/>
    <circle class="st2" cx="126.42" cy="237.13" r="3.98"/>
    <circle class="st2" cx="126.42" cy="569.41" r="3.98" transform="translate(-31.3 7.86) rotate(-3.17)"/>
    <circle class="st2" cx="406.73" cy="731.26" r="3.98"/>
    <circle class="st2" cx="830.71" cy="486.41" r="3.98"/>
    <path d="M111.48,394.03c0-8.37-4.14-12.96-11.97-12.96s-12.24,4.68-12.24,12.96v26.91h-4.59v-64.08h4.59v25.83c3.24-3.78,7.47-5.67,12.78-5.67,9.99,0,16.02,6.12,16.02,16.2v27.72h-4.59v-26.91h0Z"/>
    <path d="M243.16,710.27c-3.87,5.04-7.92,6.12-12.87,6.12-4.59,0-8.37-1.53-10.62-3.78-4.41-4.41-5.58-11.61-5.58-18.45s1.17-14.04,5.58-18.45c2.25-2.25,6.03-3.78,10.62-3.78,4.95,0,9,1.08,12.87,6.12v-26.28h4.59v64.08h-4.59v-5.58h0ZM230.92,675.98c-10.62,0-12.24,9.18-12.24,18.18s1.62,18.18,12.24,18.18,12.24-9.18,12.24-18.18-1.62-18.18-12.24-18.18Z"/>
    <path d="M655.22,665.9l-12.24-36.18-12.24,36.18h-4.68l-13.86-43.38h5.04l11.07,37.98,12.42-37.98h4.5l12.42,37.98,11.07-37.98h5.04l-13.86,43.38h-4.68Z"/>
  </g>
  <g id="Layer_2">
    <g>
      <polyline class="st1" points="174.97 271.66 175.33 285.4 175.33 271.84"/>
      <polyline class="st1" points="174.97 271.6 174.97 285.1 175.33 285.4"/>
      <line class="st1" x1="174.85" y1="271.54" x2="174.97" y2="285.1"/>
      <polyline class="st1" points="174.79 271.54 174.79 284.74 174.97 285.1"/>
      <polyline class="st1" points="183.67 290.26 184.21 290.44 183.67 276.64"/>
      <line class="st1" x1="183.67" y1="276.64" x2="183.67" y2="290.26"/>
      <line class="st1" x1="184.21" y1="290.44" x2="184.21" y2="276.94"/>
      <polyline class="st1" points="184.21 290.44 184.81 290.5 184.21 277"/>
      <line class="st1" x1="184.81" y1="290.5" x2="184.81" y2="277.3"/>
      <polyline class="st1" points="184.81 290.5 185.47 290.44 184.87 277.36"/>
      <line class="st1" x1="185.47" y1="290.44" x2="185.47" y2="277.72"/>
      <polyline class="st1" points="185.47 290.44 186.01 290.26 185.53 277.72"/>
      <line class="st1" x1="186.01" y1="290.26" x2="186.01" y2="278.02"/>
      <line class="st1" x1="175.33" y1="271.84" x2="175.33" y2="285.4"/>
      <line class="st1" x1="175.33" y1="285.4" x2="183.67" y2="290.26"/>
      <line class="st1" x1="183.67" y1="290.26" x2="183.67" y2="276.64"/>
      <line class="st1" x1="186.01" y1="278.02" x2="186.01" y2="290.26"/>
      <line class="st1" x1="186.01" y1="290.26" x2="193.03" y2="286.18"/>
      <line class="st1" x1="193.03" y1="286.18" x2="193.03" y2="282.04"/>
      <line class="st1" x1="195.13" y1="283.3" x2="195.13" y2="287.44"/>
      <line class="st1" x1="193.03" y1="286.18" x2="193.03" y2="282.04"/>
      <polyline class="st1" points="360.31 378.64 360.61 392.44 360.61 378.82"/>
      <polyline class="st1" points="360.25 378.64 360.25 392.08 360.61 392.44"/>
      <line class="st1" x1="360.19" y1="378.58" x2="360.25" y2="392.08"/>
      <polyline class="st1" points="360.13 378.58 360.13 391.72 360.25 392.08"/>
      <polyline class="st1" points="368.95 397.24 369.49 397.42 369.01 383.68"/>
      <line class="st1" x1="368.95" y1="383.68" x2="368.95" y2="397.24"/>
      <line class="st1" x1="369.49" y1="397.42" x2="369.49" y2="383.98"/>
      <polyline class="st1" points="369.49 397.42 370.15 397.54 369.55 383.98"/>
      <line class="st1" x1="370.15" y1="397.54" x2="370.15" y2="384.34"/>
      <polyline class="st1" points="370.15 397.54 370.81 397.42 370.21 384.34"/>
      <line class="st1" x1="370.81" y1="397.42" x2="370.81" y2="384.7"/>
      <polyline class="st1" points="370.81 397.42 371.35 397.24 370.87 384.76"/>
      <line class="st1" x1="371.35" y1="397.24" x2="371.35" y2="385"/>
      <line class="st1" x1="360.61" y1="378.82" x2="360.61" y2="392.44"/>
      <line class="st1" x1="360.61" y1="392.44" x2="368.95" y2="397.24"/>
      <line class="st1" x1="368.95" y1="397.24" x2="368.95" y2="383.68"/>
      <line class="st1" x1="371.35" y1="385" x2="371.35" y2="397.24"/>
      <line class="st1" x1="371.35" y1="397.24" x2="378.37" y2="393.16"/>
      <line class="st1" x1="378.37" y1="393.16" x2="378.37" y2="389.08"/>
      <line class="st1" x1="380.47" y1="390.28" x2="380.47" y2="394.42"/>
      <line class="st1" x1="378.37" y1="393.16" x2="378.37" y2="389.08"/>
      <line class="st1" x1="832.75" y1="172" x2="820.27" y2="164.8"/>
      <line class="st1" x1="811.39" y1="169.9" x2="823.87" y2="177.1"/>
      <line class="st1" x1="823.87" y1="177.1" x2="823.87" y2="454.06"/>
      <line class="st1" x1="823.87" y1="454.06" x2="832.75" y2="448.96"/>
      <line class="st1" x1="832.75" y1="448.96" x2="832.75" y2="172"/>
      <line class="st1" x1="832.75" y1="172" x2="823.87" y2="177.1"/>
      <line class="st1" x1="823.87" y1="454.06" x2="680.23" y2="371.14"/>
      <line class="st1" x1="832.75" y1="448.96" x2="832.75" y2="172"/>
      <line class="st1" x1="832.75" y1="172" x2="823.87" y2="177.1"/>
      <line class="st1" x1="823.87" y1="454.06" x2="832.75" y2="448.96"/>
      <line class="st1" x1="832.09" y1="171.58" x2="832.75" y2="172"/>
      <line class="st1" x1="823.87" y1="454.06" x2="823.87" y2="177.1"/>
      <line class="st1" x1="823.87" y1="177.1" x2="823.15" y2="176.68"/>
      <line class="st1" x1="823.15" y1="453.7" x2="823.87" y2="454.06"/>
      <line class="st1" x1="823.15" y1="453.7" x2="823.15" y2="176.68"/>
      <line class="st1" x1="823.15" y1="176.68" x2="832.09" y2="171.58"/>
      <line class="st1" x1="832.09" y1="171.58" x2="820.27" y2="164.8"/>
      <line class="st1" x1="823.15" y1="176.68" x2="832.09" y2="171.58"/>
      <line class="st1" x1="823.15" y1="176.68" x2="811.39" y2="169.9"/>
      <line class="st1" x1="823.15" y1="177.52" x2="823.15" y2="176.68"/>
      <line class="st1" x1="823.15" y1="177.52" x2="810.67" y2="170.32"/>
      <line class="st1" x1="680.95" y1="370.72" x2="823.15" y2="452.86"/>
      <line class="st1" x1="680.23" y1="371.14" x2="823.15" y2="453.7"/>
      <line class="st1" x1="823.15" y1="453.7" x2="823.15" y2="452.86"/>
      <line class="st1" x1="405.07" y1="394.18" x2="155.59" y2="250.18"/>
      <line class="st1" x1="155.59" y1="260.44" x2="405.07" y2="404.5"/>
      <line class="st1" x1="405.07" y1="404.5" x2="832.75" y2="157.54"/>
      <line class="st1" x1="832.75" y1="157.54" x2="832.75" y2="147.28"/>
      <line class="st1" x1="832.75" y1="147.28" x2="405.07" y2="394.18"/>
      <line class="st1" x1="405.07" y1="394.18" x2="405.07" y2="404.5"/>
      <line class="st1" x1="155.59" y1="250.18" x2="583.27" y2="3.22"/>
      <line class="st1" x1="155.59" y1="260.44" x2="155.59" y2="250.18"/>
      <line class="st1" x1="583.27" y1="3.22" x2="832.75" y2="147.28"/>
      <line class="st1" x1="155.59" y1="250.18" x2="583.27" y2="3.22"/>
      <line class="st1" x1="155.59" y1="260.44" x2="155.59" y2="250.18"/>
      <line class="st1" x1="156.31" y1="250.6" x2="583.99" y2="3.64"/>
      <line class="st1" x1="583.99" y1="3.64" x2="583.27" y2="3.22"/>
      <line class="st1" x1="155.59" y1="250.18" x2="156.31" y2="250.6"/>
      <line class="st1" x1="156.31" y1="260.86" x2="155.59" y2="260.44"/>
      <line class="st1" x1="156.31" y1="250.6" x2="156.31" y2="260.86"/>
      <line class="st1" x1="404.35" y1="393.82" x2="156.31" y2="250.6"/>
      <line class="st1" x1="156.31" y1="250.6" x2="156.31" y2="260.86"/>
      <line class="st1" x1="404.35" y1="404.08" x2="404.35" y2="393.82"/>
      <line class="st1" x1="405.07" y1="393.4" x2="157.03" y2="250.18"/>
      <line class="st1" x1="157.03" y1="250.18" x2="156.31" y2="250.6"/>
      <line class="st1" x1="404.35" y1="393.82" x2="405.07" y2="393.4"/>
      <line class="st1" x1="404.35" y1="404.08" x2="156.31" y2="260.86"/>
      <line class="st1" x1="832.75" y1="147.28" x2="405.07" y2="394.18"/>
      <line class="st1" x1="405.07" y1="394.18" x2="405.07" y2="404.5"/>
      <line class="st1" x1="832.75" y1="157.54" x2="832.75" y2="147.28"/>
      <line class="st1" x1="832.09" y1="146.86" x2="404.35" y2="393.82"/>
      <line class="st1" x1="404.35" y1="393.82" x2="405.07" y2="394.18"/>
      <line class="st1" x1="832.75" y1="147.28" x2="832.09" y2="146.86"/>
      <line class="st1" x1="832.75" y1="157.54" x2="405.07" y2="404.5"/>
      <line class="st1" x1="405.07" y1="404.5" x2="404.35" y2="404.08"/>
      <line class="st1" x1="404.35" y1="404.08" x2="404.35" y2="393.82"/>
      <line class="st1" x1="583.99" y1="3.64" x2="832.09" y2="146.86"/>
      <line class="st1" x1="583.27" y1="4.06" x2="831.37" y2="147.28"/>
      <line class="st1" x1="831.37" y1="147.28" x2="832.09" y2="146.86"/>
      <line class="st1" x1="583.99" y1="3.64" x2="583.27" y2="4.06"/>
      <line class="st1" x1="414.01" y1="413.74" x2="378.37" y2="393.16"/>
      <line class="st1" x1="360.13" y1="382.66" x2="193.03" y2="286.18"/>
      <line class="st1" x1="174.79" y1="275.68" x2="164.53" y2="269.74"/>
      <line class="st1" x1="155.59" y1="274.84" x2="405.07" y2="418.9"/>
      <line class="st1" x1="155.59" y1="551.8" x2="155.59" y2="274.84"/>
      <line class="st1" x1="155.59" y1="274.84" x2="164.53" y2="269.74"/>
      <line class="st1" x1="405.07" y1="418.9" x2="405.07" y2="695.86"/>
      <line class="st1" x1="405.07" y1="695.86" x2="414.01" y2="690.7"/>
      <line class="st1" x1="414.01" y1="690.7" x2="414.01" y2="413.74"/>
      <line class="st1" x1="414.01" y1="413.74" x2="405.07" y2="418.9"/>
      <line class="st1" x1="405.07" y1="695.86" x2="155.59" y2="551.8"/>
      <line class="st1" x1="405.07" y1="418.9" x2="405.07" y2="695.86"/>
      <line class="st1" x1="405.07" y1="695.86" x2="414.01" y2="690.7"/>
      <line class="st1" x1="414.01" y1="413.74" x2="405.07" y2="418.9"/>
      <line class="st1" x1="404.35" y1="418.48" x2="404.35" y2="695.44"/>
      <line class="st1" x1="404.35" y1="695.44" x2="405.07" y2="695.86"/>
      <line class="st1" x1="405.07" y1="418.9" x2="404.35" y2="418.48"/>
      <line class="st1" x1="414.01" y1="413.74" x2="414.01" y2="690.7"/>
      <line class="st1" x1="413.29" y1="413.32" x2="414.01" y2="413.74"/>
      <line class="st1" x1="404.35" y1="418.48" x2="413.29" y2="413.32"/>
      <line class="st1" x1="156.31" y1="275.26" x2="404.35" y2="418.48"/>
      <line class="st1" x1="404.35" y1="418.48" x2="413.29" y2="413.32"/>
      <line class="st1" x1="165.19" y1="270.1" x2="156.31" y2="275.26"/>
      <line class="st1" x1="156.31" y1="276.1" x2="404.35" y2="419.32"/>
      <line class="st1" x1="404.35" y1="419.32" x2="404.35" y2="418.48"/>
      <line class="st1" x1="156.31" y1="275.26" x2="156.31" y2="276.1"/>
      <line class="st1" x1="165.19" y1="270.1" x2="174.79" y2="275.68"/>
      <line class="st1" x1="193.03" y1="286.18" x2="360.13" y2="382.66"/>
      <line class="st1" x1="378.37" y1="393.16" x2="413.29" y2="413.32"/>
      <line class="st1" x1="155.59" y1="551.8" x2="155.59" y2="274.84"/>
      <line class="st1" x1="155.59" y1="274.84" x2="164.53" y2="269.74"/>
      <line class="st1" x1="156.31" y1="552.22" x2="156.31" y2="275.26"/>
      <line class="st1" x1="156.31" y1="275.26" x2="155.59" y2="274.84"/>
      <line class="st1" x1="155.59" y1="551.8" x2="156.31" y2="552.22"/>
      <line class="st1" x1="164.53" y1="269.74" x2="165.19" y2="270.1"/>
      <line class="st1" x1="165.19" y1="270.1" x2="156.31" y2="275.26"/>
      <line class="st1" x1="404.35" y1="694.66" x2="156.31" y2="551.44"/>
      <line class="st1" x1="156.31" y1="551.44" x2="156.31" y2="552.22"/>
      <line class="st1" x1="404.35" y1="695.44" x2="404.35" y2="694.66"/>
      <line class="st1" x1="404.35" y1="695.44" x2="156.31" y2="552.22"/>
      <line class="st1" x1="806.05" y1="173.02" x2="806.05" y2="298.54"/>
      <line class="st1" x1="806.05" y1="298.54" x2="414.01" y2="524.86"/>
      <line class="st1" x1="396.19" y1="403.48" x2="399.73" y2="401.44"/>
      <line class="st1" x1="393.31" y1="397.72" x2="389.77" y2="399.76"/>
      <line class="st1" x1="389.77" y1="399.76" x2="396.19" y2="403.48"/>
      <line class="st1" x1="396.19" y1="403.48" x2="399.73" y2="401.38"/>
      <line class="st1" x1="389.77" y1="399.76" x2="396.19" y2="403.48"/>
      <line class="st1" x1="396.91" y1="403.9" x2="400.45" y2="401.8"/>
      <line class="st1" x1="389.77" y1="399.76" x2="393.31" y2="397.72"/>
      <line class="st1" x1="806.05" y1="173.02" x2="806.05" y2="297.7"/>
      <line class="st1" x1="805.33" y1="173.44" x2="805.33" y2="298.12"/>
      <line class="st1" x1="805.33" y1="298.12" x2="806.05" y2="297.7"/>
      <line class="st1" x1="806.05" y1="298.54" x2="414.01" y2="524.86"/>
      <line class="st1" x1="806.05" y1="297.7" x2="414.01" y2="524.08"/>
      <line class="st1" x1="806.05" y1="298.54" x2="806.05" y2="297.7"/>
    </g>
  </g>
</svg>